<svg width="229" height="171" viewBox="0 0 229 171" fill="none" xmlns="http://www.w3.org/2000/svg">
<path fill-rule="evenodd" clip-rule="evenodd" d="M229 0V142.897H150.626V157.283H173.53V171H54.9824V157.283H79.5149V142.897H0V0H229ZM27.1624 105.762H180.507V112.101H27.1624V105.762ZM27.1624 88.8399H125.011V95.179H27.1624V88.8399ZM176.813 53.4428L202.777 53.5269C202.754 60.2151 199.968 66.6173 195.035 71.3117C193.871 72.4164 192.599 73.4163 191.237 74.2983L176.813 53.4428ZM174.152 48.4665L172.765 21.6589C172.738 21.1289 173.163 20.6788 173.709 20.6536C173.87 20.6452 174.058 20.6368 174.268 20.6326C174.443 20.6242 174.63 20.6242 174.827 20.6199C182.453 20.54 189.448 23.3331 194.677 27.9812C199.905 32.6293 203.363 39.1367 203.908 46.4853C203.944 47.0153 203.533 47.4738 202.983 47.5117L175.216 49.4298C174.671 49.4635 174.192 49.0681 174.156 48.5381C174.152 48.5128 174.152 48.4918 174.152 48.4665ZM174.8 22.5381L176.088 47.4402L201.833 45.6651C201.109 39.2166 197.969 33.5169 193.331 29.3946C188.46 25.0619 181.943 22.4624 174.845 22.5381H174.8ZM171.043 52.2944L184.962 75.5812C180.731 77.941 175.927 79.1861 171.043 79.1861C155.666 79.1861 143.201 67.1431 143.201 52.2944C143.201 38.9474 153.332 27.6237 167 25.6845L171.043 52.2944ZM91.5821 23.5308L89.3637 20.8765C89.0148 20.418 88.9075 19.9848 89.0506 19.5852C89.4263 18.5083 90.777 18.6135 91.7118 18.6724C94.3686 18.8532 100.635 18.9079 102.003 18.9584C103.005 19.0257 103.591 19.7324 103.421 20.662C103.144 21.9618 101.869 28.221 101.413 30.5976C101.252 31.4221 100.988 32.4947 99.8834 32.5746C99.4361 32.6083 99.0157 32.4064 98.6221 31.9815L96.4081 29.3231L95.3794 28.0948L81.5455 36.5203C81.371 39.7971 78.4906 42.4051 74.9617 42.4051C71.321 42.4051 68.369 39.6288 68.369 36.2048C68.369 36.066 68.3735 35.9272 68.3824 35.7926L60.7342 30.5976C59.6322 31.3238 58.3183 31.7117 56.9727 31.7081C55.0673 31.7081 53.3543 30.9467 52.1512 29.7311L39.3281 36.1964C39.3549 36.4067 39.3638 36.6212 39.3638 36.84C39.3638 40.264 36.4119 43.0402 32.7756 43.0402C29.1349 43.0402 26.1829 40.264 26.1829 36.84C26.1829 33.4159 29.1349 30.6397 32.7756 30.6397C34.0951 30.6397 35.3206 31.0056 36.3537 31.6324L50.465 24.5193C50.9659 21.5664 53.6898 19.3075 56.9727 19.3075C60.6134 19.3075 63.5654 22.0838 63.5654 25.5078C63.5654 25.6424 63.5609 25.7812 63.552 25.9201L71.2002 31.115C72.3035 30.3912 73.6165 30.0035 74.9617 30.0045C76.6166 30.0045 78.1284 30.5808 79.2868 31.5272L91.8594 23.8673L91.5821 23.5308ZM94.6146 39.5279H103.703C104.226 39.5279 104.656 39.9317 104.656 40.4238V73.6336C104.656 74.1258 104.226 74.5296 103.703 74.5296H94.6146C94.0957 74.5296 93.6619 74.1258 93.6619 73.6336V40.4238C93.6619 39.9317 94.0913 39.5279 94.6146 39.5279ZM72.4883 50.9105H81.5768C82.1001 50.9105 82.5295 51.3143 82.5295 51.8065V73.6336C82.5295 74.1258 82.1001 74.5296 81.5768 74.5296H72.4883C71.965 74.5296 71.5357 74.1258 71.5357 73.6336V51.8065C71.5357 51.3143 71.965 50.9105 72.4883 50.9105ZM50.3576 39.5279H59.4505C59.9738 39.5279 60.3987 39.9317 60.3987 40.4238V73.6336C60.3987 74.1258 59.9694 74.5296 59.4505 74.5296H50.3576C49.8388 74.5296 49.4094 74.1258 49.4094 73.6336V40.4238C49.4094 39.9317 49.8343 39.5279 50.3576 39.5279ZM28.2269 52.7445H37.3198C37.8431 52.7445 38.268 53.1525 38.268 53.6405V73.6336C38.268 74.1258 37.8387 74.5296 37.3198 74.5296H28.2269C27.7081 74.5296 27.2787 74.1258 27.2787 73.6336V53.6405C27.2787 53.1483 27.7036 52.7445 28.2269 52.7445ZM6.83422 124.586H222.134V6.42743H6.83422V124.586Z" fill="#474747"/>
</svg>
