<svg width="151" height="139" viewBox="0 0 181 169" fill="none" xmlns="http://www.w3.org/2000/svg">
<g clip-path="url(#clip0_120_2680)">
<path fill-rule="evenodd" clip-rule="evenodd" d="M15.5384 113.175L15.9145 54.3195H8.30098V129.215C18.768 126.862 29.2739 125.358 39.8577 125.301C49.6243 125.245 59.4039 126.433 69.1835 129.328C63.1004 125.03 56.317 121.874 49.0795 119.815C39.9614 117.225 30.104 116.365 20.0002 117.123C17.7174 117.281 15.72 115.799 15.5254 113.82C15.5125 113.582 15.5125 113.379 15.5384 113.175ZM75.5 0C95.8115 0 112.53 13.4837 114.528 30.7343C120.027 30.723 128.276 30.9718 132.076 31.4583C134.139 31.7184 135.604 33.2681 135.604 35.0328V47.0912H135.617H146.85C149.132 47.0912 150.987 48.7088 150.987 50.6997V133.921C150.987 135.923 149.132 137.541 146.85 137.541C146.383 137.541 145.929 137.473 145.501 137.348C133.944 134.464 122.478 132.552 111.103 132.484C100.027 132.417 88.9502 134.125 77.8217 138.4C77.1343 138.796 76.3171 139.011 75.4611 139.011C74.631 139.023 73.8009 138.808 73.1005 138.4C61.985 134.113 50.9083 132.417 39.8188 132.484C28.4568 132.552 16.9911 134.464 5.42158 137.348C5.00653 137.473 4.55257 137.541 4.08564 137.541C1.85475 137.541 0 135.934 0 133.932V50.6997C0 48.7088 1.85475 47.0912 4.13752 47.0912H15.9405L16.0183 35.0215C16.0313 33.2795 17.4321 31.8542 19.3127 31.5035C22.8925 30.8474 31.1676 30.4628 36.5113 30.3836C38.7033 13.2914 55.3182 0 75.5 0ZM114.502 37.9739C112.504 53.901 97.9775 66.5363 79.7024 68.2444V122.428C86.7323 118.333 93.9178 114.974 101.298 112.677C109.716 110.064 118.367 108.82 127.329 109.442V51.2427C127.303 51.073 127.277 50.8807 127.277 50.6997C127.277 50.5187 127.29 50.3377 127.329 50.1567V38.2341C124.657 38.0078 119.158 37.9173 114.502 37.9739ZM71.4144 68.2557C52.9317 66.5815 38.2623 53.72 36.4595 37.5667C31.9458 37.578 26.7836 37.7476 24.2674 38.0531L23.8005 109.657C33.3985 109.363 42.789 110.415 51.6217 112.938C58.6516 114.94 65.3054 117.858 71.4144 121.727V68.2557ZM83.7232 128.774C92.8802 126.263 102.024 125.233 111.155 125.279C121.739 125.335 132.245 126.851 142.712 129.204V54.3195H135.617V113.503C135.617 115.505 133.762 117.112 131.48 117.112C131.143 117.112 130.831 117.078 130.52 117.021C121.454 115.777 112.66 116.806 104.086 119.476C97.1863 121.625 90.4029 124.838 83.7232 128.774ZM86.9787 54.7041H64.0213V51.3332H68.3404V30.7456H64.0213V28.0647H74.7477C77.4585 28.0647 80.1304 27.7819 82.7634 27.205V51.3332H86.9787V54.7041ZM77.0435 11.7417C78.8204 11.7417 80.2212 12.1942 81.2458 13.0765C82.2575 13.9588 82.7634 15.1805 82.7634 16.7415C82.7634 18.3252 81.8943 19.7392 80.1434 20.9722C78.3924 22.2052 76.3431 22.8273 74.0344 22.8273C72.2834 22.8273 70.9085 22.3975 69.845 21.5491C68.7814 20.6894 68.2496 19.5695 68.2496 18.1781C68.2496 16.4248 69.1186 14.9203 70.8437 13.6421C72.5557 12.3752 74.631 11.7417 77.0435 11.7417Z" fill="#474747"/>
</g>
<defs>
<clipPath id="clip0_120_2680">
<rect width="151" height="139" fill="white"/>
</clipPath>
</defs>
</svg>
