<svg width="265" height="204" viewBox="0 0 265 204" fill="none" xmlns="http://www.w3.org/2000/svg">
<path d="M7.58985 34.3529C6.96497 34.5724 6.4681 35.0279 6.17183 35.5823C5.87631 36.1364 5.78557 36.7837 5.97143 37.3874L10.3072 51.4691L14.5811 65.3498L18.8818 79.3174L23.2967 93.6563C23.4295 94.0875 23.844 94.4019 24.3607 94.5905C25.1218 94.8706 26.0197 94.879 26.724 94.6316L33.9752 92.0842L32.2854 86.596C31.951 85.51 32.5922 84.3089 33.7164 83.914L44.6502 80.0728C45.7752 79.6776 46.9579 80.238 47.2923 81.324L48.9821 86.8122L84.9369 74.1812L83.247 68.6929C82.9127 67.6069 83.5531 66.4061 84.6781 66.0109L95.5219 62.2014C96.6468 61.8062 97.8296 62.3666 98.1639 63.4525L99.8538 68.9408L106.676 66.5441C107.214 66.3552 107.651 65.9474 107.915 65.4503C108.181 64.9538 108.268 64.3807 108.108 63.8611L93.2133 15.4877C93.0459 14.9439 92.6667 14.5321 92.188 14.3059C91.7107 14.0792 91.1336 14.0373 90.57 14.2353L52.8095 27.5008C51.6853 27.8957 50.5016 27.3349 50.1672 26.2489C49.6871 24.6894 49.1155 22.8413 48.2297 21.7506C47.6194 20.9989 46.7123 20.6098 45.2636 21.1187L7.58985 34.3529ZM65.0146 57.0199L94.7682 46.5673L95.9444 50.3872L66.1908 60.8398L65.0146 57.0199ZM58.8652 37.0481L88.6189 26.5955L89.7948 30.4146L60.0412 40.8672L58.8652 37.0481ZM61.94 47.0344L91.6937 36.5818L92.8698 40.4016L63.1162 50.8542L61.94 47.0344ZM26.2547 46.0254L27.2675 49.3147C25.6818 50.3398 27.1602 54.8528 29.0681 54.1825C29.6528 53.9658 33.5523 56.8314 34.1494 57.3278C35.3076 58.2903 34.6699 59.0181 34.93 59.8629C27.1432 64.6133 24.9855 66.2719 27.498 74.4319L42.0828 69.3082L56.6668 64.1848C54.1543 56.0247 51.4956 56.059 42.5897 57.172C42.2803 56.1672 41.4575 55.9752 41.8091 54.6369C42.2061 53.1272 43.0978 50.8962 44.1051 48.8992C46.1279 48.229 44.7706 43.6411 42.8945 43.824L41.8817 40.5347C39.4409 32.6102 23.8144 38.0999 26.2547 46.0254ZM2.43441 33.8122C3.24654 32.2895 4.62834 31.0322 6.37815 30.4175L44.0509 17.1829C47.627 15.9266 49.9648 17.0093 51.6068 19.0312C52.5184 20.1541 53.1281 21.5191 53.6056 22.8601L89.3591 10.2997C91.0476 9.70655 92.7785 9.8306 94.2134 10.5105C95.6484 11.1903 96.7861 12.4266 97.2879 14.0562L112.183 62.4312C112.677 64.0367 112.433 65.7614 111.654 67.2234C110.873 68.6839 109.552 69.8965 107.888 70.4809L99.0294 73.593C97.9045 73.9882 96.7217 73.4279 96.3874 72.3419L94.6975 66.8536L87.9275 69.232L89.6173 74.7202C89.9517 75.8062 89.3112 77.0071 88.1863 77.4022L48.1577 91.4645C47.0328 91.8597 45.8493 91.2996 45.5149 90.2136L43.8251 84.7253L36.9658 87.135L38.6557 92.6233C38.99 93.7093 38.3496 94.9101 37.2246 95.3053L27.9362 98.5684C26.3301 99.1326 24.3329 99.1289 22.6796 98.5216C21.0815 97.9355 19.7505 96.8037 19.2224 95.0885L14.8074 80.7496L10.5065 66.7812L6.23263 52.9005L1.89686 38.8188C1.3764 37.1285 1.62281 35.334 2.43441 33.8122Z" fill="#474747"/>
<g clip-path="url(#clip0_134_3779)">
<path d="M176.404 136.007H188.596C190.382 136.007 192.02 136.737 193.188 137.928C194.37 139.118 195.095 140.755 195.095 142.554V168.448C195.095 170.247 194.37 171.884 193.188 173.074C192.007 174.265 190.382 174.995 188.596 174.995H176.404C174.618 174.995 172.993 174.265 171.812 173.074C170.63 171.884 169.905 170.247 169.905 168.448V142.568C169.905 140.769 170.63 139.118 171.812 137.941C172.993 136.751 174.618 136.007 176.404 136.007ZM109.359 86.8855H151.656V74.683C151.656 72.8431 152.395 71.1792 153.604 69.9616C154.799 68.7441 156.464 68 158.29 68H206.71C208.536 68 210.188 68.7441 211.396 69.9616C212.592 71.1656 213.344 72.8431 213.344 74.683V86.899H255.641C258.219 86.899 260.555 87.9542 262.261 89.6723C263.953 91.3769 265.013 93.7444 265.013 96.3418V194.584C265.013 197.182 263.966 199.536 262.261 201.254C260.569 202.958 258.219 204.027 255.641 204.027H109.359C106.781 204.027 104.445 202.972 102.739 201.254C101.047 199.522 100 197.168 100 194.571V96.3283C100 93.7308 101.047 91.3769 102.753 89.6588C104.445 87.9542 106.781 86.8855 109.359 86.8855ZM206.71 73.8578H158.29C158.062 73.8578 157.86 73.9525 157.712 74.1013C157.565 74.2501 157.471 74.453 157.471 74.683V86.7638H207.529V74.683C207.529 74.453 207.435 74.2501 207.288 74.1013C207.14 73.9389 206.938 73.8578 206.71 73.8578ZM105.801 143.258C127.191 149.454 143.009 152.119 164.413 153.12V158.978C143.022 157.99 127.205 155.393 105.801 149.319V194.557C105.801 195.545 106.204 196.438 106.848 197.087C107.493 197.736 108.379 198.142 109.359 198.142H255.627C256.608 198.142 257.494 197.736 258.138 197.087C258.783 196.438 259.186 195.545 259.186 194.557V149.332C237.822 155.393 222.958 157.99 201.608 158.978V153.12C222.971 152.105 237.836 149.44 259.186 143.258V96.3283C259.186 95.3407 258.783 94.4478 258.138 93.7985C257.494 93.1491 256.608 92.7433 255.627 92.7433H109.359C108.379 92.7433 107.493 93.1491 106.848 93.7985C106.204 94.4478 105.801 95.3407 105.801 96.3283V143.258ZM188.596 141.865H176.404C176.216 141.865 176.041 141.946 175.92 142.067C175.8 142.189 175.719 142.365 175.719 142.554V168.448C175.719 168.637 175.8 168.813 175.92 168.935C176.041 169.07 176.216 169.138 176.404 169.138H188.596C188.784 169.138 188.959 169.056 189.08 168.935C189.2 168.813 189.281 168.637 189.281 168.448V142.568C189.281 142.379 189.2 142.203 189.08 142.081C188.959 141.946 188.784 141.865 188.596 141.865Z" fill="#474747"/>
</g>
<defs>
<clipPath id="clip0_134_3779">
<rect width="165" height="136" fill="white" transform="translate(100 68)"/>
</clipPath>
</defs>
</svg>
