<svg width="199" height="166" viewBox="0 0 199 166" fill="none" xmlns="http://www.w3.org/2000/svg">
<g clip-path="url(#clip0_124_2861)">
<path fill-rule="evenodd" clip-rule="evenodd" d="M99.5 56.1858C115.436 56.1858 128.359 68.1901 128.359 82.9925C128.359 97.7948 115.436 109.799 99.5 109.799C83.5645 109.799 70.6411 97.7948 70.6411 82.9925C70.6411 68.1901 83.5645 56.1858 99.5 56.1858ZM10.235 0V9.35677H30.0249V0H40.2599V22.3841H158.724V0H168.959V9.35677H188.749V0H198.984V166H188.749V155.184H168.959V166H158.724V142.593H40.2761V166H30.0411V155.184H10.235V166H0V0H10.235ZM158.724 31.8913H40.2761V133.086H158.74V31.8913H158.724ZM188.765 145.677V127.926H168.975V145.677H188.765ZM188.765 118.419V100.668H168.975V118.419H188.765ZM188.765 91.1458V73.395H168.975V91.1458H188.765ZM188.765 63.8878V46.137H168.975V63.8878H188.765ZM188.765 36.6298V18.879H168.975V36.6298H188.765ZM30.0249 145.677V127.926H10.235V145.677H30.0249ZM30.0249 118.419V100.668H10.235V118.419H30.0249ZM30.0249 91.1458V73.395H10.235V91.1458H30.0249ZM30.0249 63.8878V46.137H10.235V63.8878H30.0249ZM30.0249 36.6298V18.879H10.235V36.6298H30.0249ZM113.929 82.9774L91.2083 97.148V69.0175L113.929 82.9774Z" fill="black"/>
</g>
<defs>
<clipPath id="clip0_124_2861">
<rect width="199" height="166" fill="white"/>
</clipPath>
</defs>
</svg>
